<svg width="133" height="41" viewBox="0 0 133 41" fill="none" xmlns="http://www.w3.org/2000/svg">
<g filter="url(#filter0_i_182_91)">
<path d="M4.68903 6.76843C6.0713 2.72053 9.87508 0 14.1525 0H118.168C122.288 0 125.986 2.52668 127.484 6.3647L131.581 16.8647C132.494 19.2024 132.494 21.7976 131.581 24.1353L127.484 34.6353C125.986 38.4733 122.288 41 118.168 41H14.1525C9.87508 41 6.0713 38.2795 4.68903 34.2316L1.10351 23.7316C0.388116 21.6366 0.388117 19.3634 1.10351 17.2684L4.68903 6.76843Z" fill="#C18544"/>
</g>
<path d="M5.16221 6.93001C6.47536 3.0845 10.089 0.5 14.1525 0.5H118.168C122.082 0.5 125.595 2.90035 127.018 6.54646L131.116 17.0465C131.982 19.2673 131.982 21.7327 131.116 23.9535L127.018 34.4535C125.595 38.0997 122.082 40.5 118.168 40.5H14.1525C10.089 40.5 6.47536 37.9155 5.1622 34.07L1.57668 23.57C0.897059 21.5797 0.897059 19.4203 1.57668 17.43L5.16221 6.93001Z" stroke="#785127" stroke-linejoin="round"/>
<defs>
<filter id="filter0_i_182_91" x="0.566956" y="0" width="139.899" height="47" filterUnits="userSpaceOnUse" color-interpolation-filters="sRGB">
<feFlood flood-opacity="0" result="BackgroundImageFix"/>
<feBlend mode="normal" in="SourceGraphic" in2="BackgroundImageFix" result="shape"/>
<feColorMatrix in="SourceAlpha" type="matrix" values="0 0 0 0 0 0 0 0 0 0 0 0 0 0 0 0 0 0 127 0" result="hardAlpha"/>
<feOffset dx="11" dy="6"/>
<feGaussianBlur stdDeviation="4.1"/>
<feComposite in2="hardAlpha" operator="arithmetic" k2="-1" k3="1"/>
<feColorMatrix type="matrix" values="0 0 0 0 0 0 0 0 0 0 0 0 0 0 0 0 0 0 0.25 0"/>
<feBlend mode="normal" in2="shape" result="effect1_innerShadow_182_91"/>
</filter>
</defs>
</svg>
